<svg width="33" height="37" viewBox="0 0 33 37" fill="none" xmlns="http://www.w3.org/2000/svg">
<path d="M16.238 22.2172C15.7268 22.2172 15.298 22.0436 14.9516 21.6963C14.6052 21.3491 14.4326 20.9199 14.4338 20.4087C14.4338 19.8963 14.607 19.4665 14.9534 19.1193C15.2998 18.772 15.728 18.599 16.238 18.6002C16.7492 18.6002 17.178 18.7738 17.5244 19.1211C17.8708 19.4683 18.0434 19.8975 18.0422 20.4087C18.0422 20.9211 17.869 21.3509 17.5226 21.6981C17.1762 22.0454 16.748 22.2184 16.238 22.2172ZM9.02112 22.2172C8.50993 22.2172 8.08112 22.0436 7.73471 21.6963C7.3883 21.3491 7.2157 20.9199 7.2169 20.4087C7.2169 19.8963 7.3901 19.4665 7.73652 19.1193C8.08293 18.772 8.51113 18.599 9.02112 18.6002C9.53232 18.6002 9.96112 18.7738 10.3075 19.1211C10.6539 19.4683 10.8265 19.8975 10.8253 20.4087C10.8253 20.9211 10.6521 21.3509 10.3057 21.6981C9.95932 22.0454 9.53112 22.2184 9.02112 22.2172ZM23.4549 22.2172C22.9437 22.2172 22.5149 22.0436 22.1685 21.6963C21.8221 21.3491 21.6495 20.9199 21.6507 20.4087C21.6507 19.8963 21.8239 19.4665 22.1703 19.1193C22.5167 18.772 22.9449 18.599 23.4549 18.6002C23.9661 18.6002 24.3949 18.7738 24.7413 19.1211C25.0877 19.4683 25.2603 19.8975 25.2591 20.4087C25.2591 20.9211 25.0859 21.3509 24.7395 21.6981C24.3931 22.0454 23.9649 22.2184 23.4549 22.2172ZM16.238 29.4511C15.7268 29.4511 15.298 29.2774 14.9516 28.9302C14.6052 28.583 14.4326 28.1538 14.4338 27.6426C14.4338 27.1302 14.607 26.7004 14.9534 26.3532C15.2998 26.0059 15.728 25.8329 16.238 25.8341C16.7492 25.8341 17.178 26.0077 17.5244 26.355C17.8708 26.7022 18.0434 27.1314 18.0422 27.6426C18.0422 28.155 17.869 28.5848 17.5226 28.932C17.1762 29.2793 16.748 29.4523 16.238 29.4511ZM9.02112 29.4511C8.50993 29.4511 8.08112 29.2774 7.73471 28.9302C7.3883 28.583 7.2157 28.1538 7.2169 27.6426C7.2169 27.1302 7.3901 26.7004 7.73652 26.3532C8.08293 26.0059 8.51113 25.8329 9.02112 25.8341C9.53232 25.8341 9.96112 26.0077 10.3075 26.355C10.6539 26.7022 10.8265 27.1314 10.8253 27.6426C10.8253 28.155 10.6521 28.5848 10.3057 28.932C9.95932 29.2793 9.53112 29.4523 9.02112 29.4511ZM23.4549 29.4511C22.9437 29.4511 22.5149 29.2774 22.1685 28.9302C21.8221 28.583 21.6495 28.1538 21.6507 27.6426C21.6507 27.1302 21.8239 26.7004 22.1703 26.3532C22.5167 26.0059 22.9449 25.8329 23.4549 25.8341C23.9661 25.8341 24.3949 26.0077 24.7413 26.355C25.0877 26.7022 25.2603 27.1314 25.2591 27.6426C25.2591 28.155 25.0859 28.5848 24.7395 28.932C24.3931 29.2793 23.9649 29.4523 23.4549 29.4511ZM3.60845 36.685C2.61613 36.685 1.76634 36.3305 1.05908 35.6216C0.351826 34.9127 -0.00119975 34.0615 3.0632e-06 33.068V7.74939C3.0632e-06 6.75473 0.353631 5.90294 1.06089 5.19402C1.76814 4.4851 2.61733 4.13124 3.60845 4.13245H5.41267V0.515503H9.02112V4.13245H23.4549V0.515503H27.0634V4.13245H28.8676C29.8599 4.13245 30.7097 4.48691 31.417 5.19583C32.1242 5.90475 32.4772 6.75594 32.476 7.74939V33.068C32.476 34.0627 32.1224 34.9145 31.4152 35.6234C30.7079 36.3323 29.8587 36.6862 28.8676 36.685H3.60845ZM3.60845 33.068H28.8676V14.9833H3.60845V33.068Z" fill="black"/>
</svg>
