<svg width="29" height="38" viewBox="0 0 29 38" fill="none" xmlns="http://www.w3.org/2000/svg">
<path d="M14.2677 18.963C15.2445 18.963 16.081 18.6086 16.7772 17.8996C17.4735 17.1907 17.821 16.3395 17.8198 15.3461C17.8198 14.3514 17.4717 13.4996 16.7755 12.7907C16.0793 12.0818 15.2433 11.7279 14.2677 11.7291C13.2909 11.7291 12.4544 12.0836 11.7582 12.7925C11.062 13.5014 10.7145 14.3526 10.7156 15.3461C10.7156 16.3407 11.0637 17.1925 11.76 17.9014C12.4562 18.6104 13.2921 18.9642 14.2677 18.963ZM14.2677 37.0477C9.50202 32.9184 5.94285 29.0832 3.5902 25.5422C1.23755 22.0013 0.0606323 18.7231 0.0594482 15.7078C0.0594482 11.1866 1.48797 7.58471 4.34502 4.90215C7.20206 2.21958 10.5096 0.878296 14.2677 0.878296C18.027 0.878296 21.3351 2.21958 24.1922 4.90215C27.0492 7.58471 28.4772 11.1866 28.476 15.7078C28.476 18.7219 27.2991 22.0001 24.9452 25.5422C22.5914 29.0844 19.0322 32.9196 14.2677 37.0477Z" fill="black"/>
</svg>
