<svg width="262" height="37" viewBox="0 0 262 37" fill="none" xmlns="http://www.w3.org/2000/svg">
<path d="M31.8118 13.3125H24.3459C24.2095 12.3466 23.9311 11.4886 23.5107 10.7386C23.0902 9.97727 22.5504 9.32954 21.8913 8.79545C21.2322 8.26136 20.4709 7.85227 19.6072 7.56818C18.755 7.28409 17.8288 7.14205 16.8288 7.14205C15.022 7.14205 13.4482 7.59091 12.1072 8.48864C10.7663 9.375 9.72656 10.6705 8.98793 12.375C8.24929 14.0682 7.87997 16.125 7.87997 18.5455C7.87997 21.0341 8.24929 23.125 8.98793 24.8182C9.73793 26.5114 10.7834 27.7898 12.1243 28.6534C13.4652 29.517 15.0163 29.9489 16.7777 29.9489C17.7663 29.9489 18.6811 29.8182 19.522 29.5568C20.3743 29.2955 21.13 28.9148 21.7891 28.4148C22.4482 27.9034 22.9936 27.2841 23.4254 26.5568C23.8686 25.8295 24.1754 25 24.3459 24.0682L31.8118 24.1023C31.6186 25.7045 31.1357 27.25 30.3629 28.7386C29.6016 30.2159 28.5732 31.5398 27.2777 32.7102C25.9936 33.8693 24.4595 34.7898 22.6754 35.4716C20.9027 36.142 18.897 36.4773 16.6584 36.4773C13.5447 36.4773 10.7607 35.7727 8.30611 34.3636C5.86293 32.9545 3.93111 30.9148 2.51065 28.2443C1.10156 25.5739 0.397017 22.3409 0.397017 18.5455C0.397017 14.7386 1.11293 11.5 2.54474 8.82955C3.97656 6.15909 5.91974 4.125 8.37429 2.72727C10.8288 1.31818 13.5902 0.613635 16.6584 0.613635C18.6811 0.613635 20.5561 0.897726 22.2834 1.46591C24.022 2.03409 25.5618 2.86364 26.9027 3.95454C28.2436 5.03409 29.3345 6.35795 30.1754 7.92614C31.0277 9.49432 31.5732 11.2898 31.8118 13.3125ZM58.6669 1.09091H66.0476V23.7614C66.0476 26.3068 65.4396 28.5341 64.2237 30.4432C63.0192 32.3523 61.3317 33.8409 59.1612 34.9091C56.9908 35.9659 54.4624 36.4943 51.576 36.4943C48.6783 36.4943 46.1442 35.9659 43.9737 34.9091C41.8033 33.8409 40.1158 32.3523 38.9112 30.4432C37.7067 28.5341 37.1044 26.3068 37.1044 23.7614V1.09091H44.4851V23.1307C44.4851 24.4602 44.7749 25.642 45.3544 26.6761C45.9453 27.7102 46.7749 28.5227 47.843 29.1136C48.9112 29.7045 50.1555 30 51.576 30C53.0078 30 54.2521 29.7045 55.3089 29.1136C56.3771 28.5227 57.201 27.7102 57.7805 26.6761C58.3714 25.642 58.6669 24.4602 58.6669 23.1307V1.09091Z" fill="#F96491"/>
<path d="M71.9155 36V30.6818L84.3416 19.1761C85.3984 18.1534 86.2848 17.233 87.0007 16.4148C87.728 15.5966 88.2791 14.7955 88.6541 14.0114C89.0291 13.2159 89.2166 12.358 89.2166 11.4375C89.2166 10.4148 88.9837 9.53409 88.5178 8.79545C88.0518 8.04545 87.4155 7.47159 86.6087 7.07386C85.8018 6.66477 84.8871 6.46023 83.8643 6.46023C82.7962 6.46023 81.8643 6.67614 81.0689 7.10795C80.2734 7.53977 79.6598 8.15909 79.228 8.96591C78.7962 9.77273 78.5803 10.733 78.5803 11.8466H71.5746C71.5746 9.5625 72.0916 7.57955 73.1257 5.89773C74.1598 4.21591 75.6087 2.91477 77.4723 1.99432C79.3359 1.07386 81.4837 0.613635 83.9155 0.613635C86.4155 0.613635 88.5916 1.05682 90.4439 1.94318C92.3075 2.81818 93.7564 4.03409 94.7905 5.59091C95.8246 7.14773 96.3416 8.93182 96.3416 10.9432C96.3416 12.2614 96.0803 13.5625 95.5575 14.8466C95.0462 16.1307 94.1314 17.5568 92.8132 19.125C91.495 20.6818 89.6371 22.5511 87.2393 24.733L82.1428 29.7273V29.9659H96.8018V36H71.9155ZM125.502 12.375C125.263 11.5455 124.928 10.8125 124.496 10.1761C124.065 9.52841 123.536 8.98295 122.911 8.53977C122.298 8.08523 121.593 7.73864 120.798 7.5C120.013 7.26136 119.144 7.14205 118.19 7.14205C116.406 7.14205 114.837 7.58523 113.485 8.47159C112.144 9.35795 111.099 10.6477 110.349 12.3409C109.599 14.0227 109.224 16.0795 109.224 18.5114C109.224 20.9432 109.593 23.0114 110.332 24.7159C111.07 26.4205 112.116 27.7216 113.468 28.6193C114.82 29.5057 116.417 29.9489 118.258 29.9489C119.928 29.9489 121.354 29.6534 122.536 29.0625C123.729 28.4602 124.638 27.6136 125.263 26.5227C125.9 25.4318 126.218 24.142 126.218 22.6534L127.718 22.875H118.718V17.3182H133.326V21.7159C133.326 24.7841 132.678 27.4205 131.383 29.625C130.087 31.8182 128.303 33.5114 126.031 34.7045C123.758 35.8864 121.156 36.4773 118.224 36.4773C114.951 36.4773 112.076 35.7557 109.599 34.3125C107.121 32.858 105.19 30.7955 103.803 28.125C102.428 25.4432 101.741 22.2614 101.741 18.5795C101.741 15.75 102.15 13.2273 102.968 11.0114C103.798 8.78409 104.957 6.89773 106.445 5.35227C107.934 3.80682 109.667 2.63068 111.644 1.82386C113.621 1.01704 115.763 0.613635 118.07 0.613635C120.048 0.613635 121.888 0.903408 123.593 1.48295C125.298 2.05114 126.809 2.85795 128.127 3.90341C129.457 4.94886 130.542 6.19318 131.383 7.63636C132.224 9.06818 132.763 10.6477 133.002 12.375H125.502ZM150.665 36.5114C147.972 36.5114 145.654 35.9659 143.711 34.875C141.779 33.7727 140.29 32.2159 139.245 30.2045C138.2 28.1818 137.677 25.7898 137.677 23.0284C137.677 20.3352 138.2 17.9716 139.245 15.9375C140.29 13.9034 141.762 12.3182 143.66 11.1818C145.569 10.0455 147.808 9.47727 150.376 9.47727C152.103 9.47727 153.711 9.75568 155.2 10.3125C156.7 10.858 158.006 11.6818 159.12 12.7841C160.245 13.8864 161.12 15.2727 161.745 16.9432C162.37 18.6023 162.683 20.5455 162.683 22.7727V24.767H140.575V20.267H155.847C155.847 19.2216 155.62 18.2955 155.165 17.4886C154.711 16.6818 154.08 16.0511 153.273 15.5966C152.478 15.1307 151.552 14.8977 150.495 14.8977C149.393 14.8977 148.415 15.1534 147.563 15.6648C146.722 16.1648 146.063 16.8409 145.586 17.6932C145.109 18.5341 144.864 19.4716 144.853 20.5057V24.7841C144.853 26.0795 145.092 27.1989 145.569 28.142C146.058 29.0852 146.745 29.8125 147.631 30.3239C148.518 30.8352 149.569 31.0909 150.785 31.0909C151.592 31.0909 152.33 30.9773 153.001 30.75C153.671 30.5227 154.245 30.1818 154.722 29.7273C155.2 29.2727 155.563 28.7159 155.813 28.0568L162.529 28.5C162.188 30.1136 161.489 31.5227 160.433 32.7273C159.387 33.9205 158.035 34.8523 156.376 35.5227C154.728 36.1818 152.825 36.5114 150.665 36.5114ZM181.347 9.81818V15.2727H165.58V9.81818H181.347ZM169.16 3.54545H176.421V27.9545C176.421 28.625 176.523 29.1477 176.728 29.5227C176.933 29.8864 177.217 30.142 177.58 30.2898C177.955 30.4375 178.387 30.5114 178.876 30.5114C179.217 30.5114 179.558 30.483 179.898 30.4261C180.239 30.358 180.501 30.3068 180.683 30.2727L181.825 35.6761C181.461 35.7898 180.95 35.9205 180.29 36.0682C179.631 36.2273 178.83 36.3239 177.887 36.358C176.137 36.4261 174.603 36.1932 173.285 35.6591C171.978 35.125 170.961 34.2955 170.234 33.1705C169.506 32.0455 169.148 30.625 169.16 28.9091V3.54545ZM193.901 20.8636V36H186.64V1.09091H193.697V14.4375H194.004C194.594 12.892 195.549 11.6818 196.867 10.8068C198.185 9.92045 199.839 9.47727 201.827 9.47727C203.646 9.47727 205.231 9.875 206.583 10.6705C207.947 11.4545 209.004 12.5852 209.754 14.0625C210.515 15.5284 210.89 17.2841 210.879 19.3295V36H203.617V20.625C203.629 19.0114 203.219 17.7557 202.39 16.858C201.572 15.9602 200.424 15.5114 198.947 15.5114C197.958 15.5114 197.083 15.7216 196.322 16.142C195.572 16.5625 194.981 17.1761 194.549 17.983C194.129 18.7784 193.913 19.7386 193.901 20.8636ZM228.525 36.5114C225.832 36.5114 223.513 35.9659 221.57 34.875C219.638 33.7727 218.15 32.2159 217.104 30.2045C216.059 28.1818 215.536 25.7898 215.536 23.0284C215.536 20.3352 216.059 17.9716 217.104 15.9375C218.15 13.9034 219.621 12.3182 221.519 11.1818C223.428 10.0455 225.667 9.47727 228.235 9.47727C229.962 9.47727 231.57 9.75568 233.059 10.3125C234.559 10.858 235.866 11.6818 236.979 12.7841C238.104 13.8864 238.979 15.2727 239.604 16.9432C240.229 18.6023 240.542 20.5455 240.542 22.7727V24.767H218.434V20.267H233.707C233.707 19.2216 233.479 18.2955 233.025 17.4886C232.57 16.6818 231.94 16.0511 231.133 15.5966C230.337 15.1307 229.411 14.8977 228.354 14.8977C227.252 14.8977 226.275 15.1534 225.423 15.6648C224.582 16.1648 223.923 16.8409 223.445 17.6932C222.968 18.5341 222.724 19.4716 222.712 20.5057V24.7841C222.712 26.0795 222.951 27.1989 223.428 28.142C223.917 29.0852 224.604 29.8125 225.491 30.3239C226.377 30.8352 227.428 31.0909 228.644 31.0909C229.451 31.0909 230.19 30.9773 230.86 30.75C231.531 30.5227 232.104 30.1818 232.582 29.7273C233.059 29.2727 233.423 28.7159 233.673 28.0568L240.388 28.5C240.048 30.1136 239.349 31.5227 238.292 32.7273C237.246 33.9205 235.894 34.8523 234.235 35.5227C232.587 36.1818 230.684 36.5114 228.525 36.5114ZM245.281 36V9.81818H252.32V14.3864H252.593C253.07 12.7614 253.871 11.5341 254.996 10.7045C256.121 9.86364 257.417 9.44318 258.883 9.44318C259.246 9.44318 259.638 9.46591 260.059 9.51136C260.479 9.55682 260.849 9.61932 261.167 9.69886V16.142C260.826 16.0398 260.354 15.9489 259.752 15.8693C259.15 15.7898 258.599 15.75 258.099 15.75C257.031 15.75 256.076 15.983 255.235 16.4489C254.406 16.9034 253.746 17.5398 253.258 18.358C252.781 19.1761 252.542 20.1193 252.542 21.1875V36H245.281Z" fill="black"/>
</svg>
