<svg width="350" height="57" viewBox="0 0 350 57" fill="none" xmlns="http://www.w3.org/2000/svg">
<path d="M76.8118 23.3125H69.3459C69.2095 22.3466 68.9311 21.4886 68.5107 20.7386C68.0902 19.9773 67.5504 19.3295 66.8913 18.7955C66.2322 18.2614 65.4709 17.8523 64.6072 17.5682C63.755 17.2841 62.8288 17.142 61.8288 17.142C60.022 17.142 58.4482 17.5909 57.1072 18.4886C55.7663 19.375 54.7266 20.6705 53.9879 22.375C53.2493 24.0682 52.88 26.125 52.88 28.5455C52.88 31.0341 53.2493 33.125 53.9879 34.8182C54.7379 36.5114 55.7834 37.7898 57.1243 38.6534C58.4652 39.517 60.0163 39.9489 61.7777 39.9489C62.7663 39.9489 63.6811 39.8182 64.522 39.5568C65.3743 39.2955 66.13 38.9148 66.7891 38.4148C67.4482 37.9034 67.9936 37.2841 68.4254 36.5568C68.8686 35.8295 69.1754 35 69.3459 34.0682L76.8118 34.1023C76.6186 35.7045 76.1357 37.25 75.3629 38.7386C74.6016 40.2159 73.5732 41.5398 72.2777 42.7102C70.9936 43.8693 69.4595 44.7898 67.6754 45.4716C65.9027 46.142 63.897 46.4773 61.6584 46.4773C58.5447 46.4773 55.7607 45.7727 53.3061 44.3636C50.8629 42.9545 48.9311 40.9148 47.5107 38.2443C46.1016 35.5739 45.397 32.3409 45.397 28.5455C45.397 24.7386 46.1129 21.5 47.5447 18.8295C48.9766 16.1591 50.9197 14.125 53.3743 12.7273C55.8288 11.3182 58.5902 10.6136 61.6584 10.6136C63.6811 10.6136 65.5561 10.8977 67.2834 11.4659C69.022 12.0341 70.5618 12.8636 71.9027 13.9545C73.2436 15.0341 74.3345 16.358 75.1754 17.9261C76.0277 19.4943 76.5732 21.2898 76.8118 23.3125ZM103.667 11.0909H111.048V33.7614C111.048 36.3068 110.44 38.5341 109.224 40.4432C108.019 42.3523 106.332 43.8409 104.161 44.9091C101.991 45.9659 99.4624 46.4943 96.576 46.4943C93.6783 46.4943 91.1442 45.9659 88.9737 44.9091C86.8033 43.8409 85.1158 42.3523 83.9112 40.4432C82.7067 38.5341 82.1044 36.3068 82.1044 33.7614V11.0909H89.4851V33.1307C89.4851 34.4602 89.7749 35.642 90.3544 36.6761C90.9453 37.7102 91.7749 38.5227 92.843 39.1136C93.9112 39.7045 95.1555 40 96.576 40C98.0078 40 99.2521 39.7045 100.309 39.1136C101.377 38.5227 102.201 37.7102 102.781 36.6761C103.371 35.642 103.667 34.4602 103.667 33.1307V11.0909Z" fill="#F96491"/>
<path d="M116.915 46V40.6818L129.342 29.1761C130.398 28.1534 131.285 27.233 132.001 26.4148C132.728 25.5966 133.279 24.7955 133.654 24.0114C134.029 23.2159 134.217 22.358 134.217 21.4375C134.217 20.4148 133.984 19.5341 133.518 18.7955C133.052 18.0455 132.415 17.4716 131.609 17.0739C130.802 16.6648 129.887 16.4602 128.864 16.4602C127.796 16.4602 126.864 16.6761 126.069 17.108C125.273 17.5398 124.66 18.1591 124.228 18.9659C123.796 19.7727 123.58 20.733 123.58 21.8466H116.575C116.575 19.5625 117.092 17.5795 118.126 15.8977C119.16 14.2159 120.609 12.9148 122.472 11.9943C124.336 11.0739 126.484 10.6136 128.915 10.6136C131.415 10.6136 133.592 11.0568 135.444 11.9432C137.308 12.8182 138.756 14.0341 139.79 15.5909C140.825 17.1477 141.342 18.9318 141.342 20.9432C141.342 22.2614 141.08 23.5625 140.558 24.8466C140.046 26.1307 139.131 27.5568 137.813 29.125C136.495 30.6818 134.637 32.5511 132.239 34.733L127.143 39.7273V39.9659H141.802V46H116.915ZM170.502 22.375C170.263 21.5455 169.928 20.8125 169.496 20.1761C169.065 19.5284 168.536 18.983 167.911 18.5398C167.298 18.0852 166.593 17.7386 165.798 17.5C165.013 17.2614 164.144 17.142 163.19 17.142C161.406 17.142 159.837 17.5852 158.485 18.4716C157.144 19.358 156.099 20.6477 155.349 22.3409C154.599 24.0227 154.224 26.0795 154.224 28.5114C154.224 30.9432 154.593 33.0114 155.332 34.7159C156.07 36.4205 157.116 37.7216 158.468 38.6193C159.82 39.5057 161.417 39.9489 163.258 39.9489C164.928 39.9489 166.354 39.6534 167.536 39.0625C168.729 38.4602 169.638 37.6136 170.263 36.5227C170.9 35.4318 171.218 34.142 171.218 32.6534L172.718 32.875H163.718V27.3182H178.326V31.7159C178.326 34.7841 177.678 37.4205 176.383 39.625C175.087 41.8182 173.303 43.5114 171.031 44.7045C168.758 45.8864 166.156 46.4773 163.224 46.4773C159.951 46.4773 157.076 45.7557 154.599 44.3125C152.121 42.858 150.19 40.7955 148.803 38.125C147.428 35.4432 146.741 32.2614 146.741 28.5795C146.741 25.75 147.15 23.2273 147.968 21.0114C148.798 18.7841 149.957 16.8977 151.445 15.3523C152.934 13.8068 154.667 12.6307 156.644 11.8239C158.621 11.017 160.763 10.6136 163.07 10.6136C165.048 10.6136 166.888 10.9034 168.593 11.483C170.298 12.0511 171.809 12.858 173.127 13.9034C174.457 14.9489 175.542 16.1932 176.383 17.6364C177.224 19.0682 177.763 20.6477 178.002 22.375H170.502ZM195.665 46.5114C192.972 46.5114 190.654 45.9659 188.711 44.875C186.779 43.7727 185.29 42.2159 184.245 40.2045C183.2 38.1818 182.677 35.7898 182.677 33.0284C182.677 30.3352 183.2 27.9716 184.245 25.9375C185.29 23.9034 186.762 22.3182 188.66 21.1818C190.569 20.0455 192.808 19.4773 195.376 19.4773C197.103 19.4773 198.711 19.7557 200.2 20.3125C201.7 20.858 203.006 21.6818 204.12 22.7841C205.245 23.8864 206.12 25.2727 206.745 26.9432C207.37 28.6023 207.683 30.5455 207.683 32.7727V34.767H185.575V30.267H200.847C200.847 29.2216 200.62 28.2955 200.165 27.4886C199.711 26.6818 199.08 26.0511 198.273 25.5966C197.478 25.1307 196.552 24.8977 195.495 24.8977C194.393 24.8977 193.415 25.1534 192.563 25.6648C191.722 26.1648 191.063 26.8409 190.586 27.6932C190.109 28.5341 189.864 29.4716 189.853 30.5057V34.7841C189.853 36.0795 190.092 37.1989 190.569 38.142C191.058 39.0852 191.745 39.8125 192.631 40.3239C193.518 40.8352 194.569 41.0909 195.785 41.0909C196.592 41.0909 197.33 40.9773 198.001 40.75C198.671 40.5227 199.245 40.1818 199.722 39.7273C200.2 39.2727 200.563 38.7159 200.813 38.0568L207.529 38.5C207.188 40.1136 206.489 41.5227 205.433 42.7273C204.387 43.9205 203.035 44.8523 201.376 45.5227C199.728 46.1818 197.825 46.5114 195.665 46.5114ZM226.347 19.8182V25.2727H210.58V19.8182H226.347ZM214.16 13.5455H221.421V37.9545C221.421 38.625 221.523 39.1477 221.728 39.5227C221.933 39.8864 222.217 40.142 222.58 40.2898C222.955 40.4375 223.387 40.5114 223.876 40.5114C224.217 40.5114 224.558 40.483 224.898 40.4261C225.239 40.358 225.501 40.3068 225.683 40.2727L226.825 45.6761C226.461 45.7898 225.95 45.9205 225.29 46.0682C224.631 46.2273 223.83 46.3239 222.887 46.358C221.137 46.4261 219.603 46.1932 218.285 45.6591C216.978 45.125 215.961 44.2955 215.234 43.1705C214.506 42.0455 214.148 40.625 214.16 38.9091V13.5455ZM238.901 30.8636V46H231.64V11.0909H238.697V24.4375H239.004C239.594 22.892 240.549 21.6818 241.867 20.8068C243.185 19.9205 244.839 19.4773 246.827 19.4773C248.646 19.4773 250.231 19.875 251.583 20.6705C252.947 21.4545 254.004 22.5852 254.754 24.0625C255.515 25.5284 255.89 27.2841 255.879 29.3295V46H248.617V30.625C248.629 29.0114 248.219 27.7557 247.39 26.858C246.572 25.9602 245.424 25.5114 243.947 25.5114C242.958 25.5114 242.083 25.7216 241.322 26.142C240.572 26.5625 239.981 27.1761 239.549 27.983C239.129 28.7784 238.913 29.7386 238.901 30.8636ZM273.525 46.5114C270.832 46.5114 268.513 45.9659 266.57 44.875C264.638 43.7727 263.15 42.2159 262.104 40.2045C261.059 38.1818 260.536 35.7898 260.536 33.0284C260.536 30.3352 261.059 27.9716 262.104 25.9375C263.15 23.9034 264.621 22.3182 266.519 21.1818C268.428 20.0455 270.667 19.4773 273.235 19.4773C274.962 19.4773 276.57 19.7557 278.059 20.3125C279.559 20.858 280.866 21.6818 281.979 22.7841C283.104 23.8864 283.979 25.2727 284.604 26.9432C285.229 28.6023 285.542 30.5455 285.542 32.7727V34.767H263.434V30.267H278.707C278.707 29.2216 278.479 28.2955 278.025 27.4886C277.57 26.6818 276.94 26.0511 276.133 25.5966C275.337 25.1307 274.411 24.8977 273.354 24.8977C272.252 24.8977 271.275 25.1534 270.423 25.6648C269.582 26.1648 268.923 26.8409 268.445 27.6932C267.968 28.5341 267.724 29.4716 267.712 30.5057V34.7841C267.712 36.0795 267.951 37.1989 268.428 38.142C268.917 39.0852 269.604 39.8125 270.491 40.3239C271.377 40.8352 272.428 41.0909 273.644 41.0909C274.451 41.0909 275.19 40.9773 275.86 40.75C276.531 40.5227 277.104 40.1818 277.582 39.7273C278.059 39.2727 278.423 38.7159 278.673 38.0568L285.388 38.5C285.048 40.1136 284.349 41.5227 283.292 42.7273C282.246 43.9205 280.894 44.8523 279.235 45.5227C277.587 46.1818 275.684 46.5114 273.525 46.5114ZM290.281 46V19.8182H297.32V24.3864H297.593C298.07 22.7614 298.871 21.5341 299.996 20.7045C301.121 19.8636 302.417 19.4432 303.883 19.4432C304.246 19.4432 304.638 19.4659 305.059 19.5114C305.479 19.5568 305.849 19.6193 306.167 19.6989V26.142C305.826 26.0398 305.354 25.9489 304.752 25.8693C304.15 25.7898 303.599 25.75 303.099 25.75C302.031 25.75 301.076 25.983 300.235 26.4489C299.406 26.9034 298.746 27.5398 298.258 28.358C297.781 29.1761 297.542 30.1193 297.542 31.1875V46H290.281Z" fill="white"/>
</svg>
